<svg id="Layer_1" data-name="Layer 1" xmlns="http://www.w3.org/2000/svg" viewBox="0 0 21.87 20.4"><defs><style>.cls-1{fill:#c7e0e7;}</style></defs><title>facebook</title><path class="cls-1" d="M19.06.83H2.83A1.58,1.58,0,0,0,1.21,2.4V18.09a1.58,1.58,0,0,0,1.62,1.57H19.06a1.58,1.58,0,0,0,1.62-1.57V2.4A1.58,1.58,0,0,0,19.06.83ZM10.94,19V12.76H8.35V10.25h2.6V8A3.52,3.52,0,0,1,14.19,4.6h2.92V7.11h-2.6a.94.94,0,0,0-1,.94v2.2h3.24v2.51H13.54V19h-2.6ZM20,18.09a.94.94,0,0,1-1,.94H14.19V13.38h3.24V9.62H14.19V8a.3.3,0,0,1,.32-.31h3.24V4h-3.6A4.18,4.18,0,0,0,10.3,8V9.62H7.7v3.77h2.6V19H2.83a.94.94,0,0,1-1-.94V2.4a.94.94,0,0,1,1-.94H19.06a.94.94,0,0,1,1,.94V18.09Z"/></svg>