<svg id="Layer_1" data-name="Layer 1" xmlns="http://www.w3.org/2000/svg" viewBox="0 0 49.49 49.01"><defs><style>.cls-1{fill:#5c9bad;}.cls-2{fill:#fff;}</style></defs><title>heart</title><circle class="cls-1" cx="24.74" cy="24.11" r="22.77"/><path class="cls-2" d="M36.33,14.22a7.65,7.65,0,0,0-10.82,0l-.76.76L24,14.22A7.64,7.64,0,1,0,13.18,25l11,11a.78.78,0,0,0,1.11,0l11-11a7.66,7.66,0,0,0,0-10.82Zm-1.12,9.7L24.74,34.35,14.29,23.91a6.06,6.06,0,1,1,8.57-8.57l1.32,1.32a.79.79,0,0,0,1.12,0l1.31-1.31a6.07,6.07,0,0,1,8.58,8.58Z"/></svg>