<svg xmlns="http://www.w3.org/2000/svg" viewBox="0 0 97.45 97.45"><defs><style>.cls-1{fill:#5c9bad;}.cls-2{fill:#fff;}</style></defs><title>Asset 2</title><g id="Layer_2" data-name="Layer 2"><g id="Layer_1-2" data-name="Layer 1"><circle class="cls-1" cx="48.73" cy="48.73" r="48.73"/><path class="cls-2" d="M73.51,27.57a16.37,16.37,0,0,0-23.14,0L48.75,29.2,47.1,27.56A16.35,16.35,0,1,0,24,50.67L47.52,74.21a1.68,1.68,0,0,0,2.38,0l23.58-23.5a16.4,16.4,0,0,0,0-23.16ZM71.1,48.33,48.71,70.64,26.36,48.29A13,13,0,1,1,44.71,29.95l2.83,2.83a1.69,1.69,0,0,0,2.39,0L52.74,30A13,13,0,0,1,71.1,48.33Z"/></g></g></svg>