<svg id="Layer_1" data-name="Layer 1" xmlns="http://www.w3.org/2000/svg" viewBox="0 0 49.49 49.01"><defs><style>.cls-1{fill:#5c9bad;}.cls-2{fill:#fff;}</style></defs><title>hourglass</title><circle class="cls-1" cx="24.98" cy="24.25" r="22.77"/><path class="cls-2" d="M34.85,35.76H33.62V34.12H31.56v-4.2a3.31,3.31,0,0,0-1.48-2.76l-4.36-2.91,4.36-2.91a3.31,3.31,0,0,0,1.48-2.76v-4.2h2.06V12.73h1.23a.41.41,0,1,0,0-.82H15.11a.41.41,0,1,0,0,.82h1.23v1.64H18.4v4.2a3.31,3.31,0,0,0,1.48,2.76l4.36,2.91-4.36,2.91a3.31,3.31,0,0,0-1.48,2.76v4.2H16.34v1.64H15.11a.41.41,0,1,0,0,.82H34.85a.41.41,0,1,0,0-.82ZM17.17,13.56v-.82H32.79v.82H17.17Zm3.17,7.1a2.49,2.49,0,0,1-1.11-2.07v-4.2H30.74v4.2a2.49,2.49,0,0,1-1.11,2.07L25,23.76Zm-1.11,9.26a2.49,2.49,0,0,1,1.11-2.07L25,24.74l4.65,3.1a2.49,2.49,0,0,1,1.11,2.07v4.2H19.22Zm-2.06,5H32.79v.82H17.17Z"/><circle class="cls-2" cx="24.98" cy="22.58" r="0.41"/><circle class="cls-2" cx="26.21" cy="21.76" r="0.41"/><circle class="cls-2" cx="23.75" cy="21.76" r="0.41"/><circle class="cls-2" cx="22.51" cy="20.93" r="0.41"/><circle class="cls-2" cx="27.45" cy="20.93" r="0.41"/><circle class="cls-2" cx="28.68" cy="20.11" r="0.41"/><circle class="cls-2" cx="21.28" cy="20.11" r="0.41"/><circle class="cls-2" cx="24.98" cy="20.93" r="0.41"/><circle class="cls-2" cx="24.98" cy="25.87" r="0.41"/><circle class="cls-2" cx="24.98" cy="27.1" r="0.41"/><circle class="cls-2" cx="24.98" cy="28.34" r="0.41"/><circle class="cls-2" cx="24.98" cy="29.57" r="0.41"/><circle class="cls-2" cx="24.98" cy="30.8" r="0.41"/><circle class="cls-2" cx="24.98" cy="32.04" r="0.41"/></svg>