<svg xmlns="http://www.w3.org/2000/svg" viewBox="0 0 97.45 97.45"><defs><style>.cls-1{fill:#5c9bad;}.cls-2{fill:#fff;}</style></defs><title>Asset 4</title><g id="Layer_2" data-name="Layer 2"><g id="Layer_1-2" data-name="Layer 1"><circle class="cls-1" cx="48.73" cy="48.73" r="48.73"/><circle class="cls-2" cx="48.73" cy="45.21" r="0.88"/><circle class="cls-2" cx="51.37" cy="43.45" r="0.88"/><circle class="cls-2" cx="46.09" cy="43.45" r="0.88"/><circle class="cls-2" cx="43.45" cy="41.69" r="0.88"/><circle class="cls-2" cx="54.01" cy="41.69" r="0.88"/><circle class="cls-2" cx="56.65" cy="39.93" r="0.88"/><circle class="cls-2" cx="40.81" cy="39.93" r="0.88"/><circle class="cls-2" cx="48.73" cy="41.69" r="0.88"/><circle class="cls-2" cx="48.73" cy="52.25" r="0.88"/><circle class="cls-2" cx="48.73" cy="54.89" r="0.88"/><circle class="cls-2" cx="48.73" cy="57.53" r="0.88"/><circle class="cls-2" cx="48.73" cy="60.17" r="0.88"/><circle class="cls-2" cx="48.73" cy="62.81" r="0.88"/><circle class="cls-2" cx="48.73" cy="65.45" r="0.88"/><path class="cls-2" d="M69.85,73.37H67.21V69.85h-4.4v-9a7.08,7.08,0,0,0-3.16-5.9l-9.34-6.22,9.34-6.22a7.08,7.08,0,0,0,3.16-5.9v-9h4.4V24.09h2.64a.88.88,0,0,0,0-1.76H27.61a.88.88,0,0,0,0,1.76h2.64v3.52h4.4v9a7.08,7.08,0,0,0,3.16,5.9l9.34,6.22L37.8,54.95a7.08,7.08,0,0,0-3.16,5.9v9h-4.4v3.52H27.61a.88.88,0,0,0,0,1.76H69.85a.88.88,0,1,0,0-1.76ZM32,25.85V24.09H65.45v1.76H32ZM38.78,41a5.32,5.32,0,0,1-2.37-4.44v-9H61v9A5.32,5.32,0,0,1,58.67,41l-9.95,6.63ZM36.41,60.85a5.32,5.32,0,0,1,2.37-4.44l9.95-6.63,9.95,6.63A5.32,5.32,0,0,1,61,60.85v9H36.41ZM32,71.61H65.45v1.76H32Z"/></g></g></svg>