<svg id="Layer_1" data-name="Layer 1" xmlns="http://www.w3.org/2000/svg" viewBox="0 0 19.73 18.01"><defs><style>.cls-1{fill:#c7e0e7;}.cls-2{fill:none;stroke:#c7e0e7;stroke-miterlimit:10;stroke-width:0.5px;}</style></defs><title>instagram</title><path class="cls-1" d="M13.2,16H6.59a3.46,3.46,0,0,1-3.45-3.45V5.92A3.46,3.46,0,0,1,6.59,2.47H13.2a3.46,3.46,0,0,1,3.45,3.45v6.62A3.46,3.46,0,0,1,13.2,16ZM6.59,3.24A2.68,2.68,0,0,0,3.91,5.92v6.62a2.68,2.68,0,0,0,2.68,2.68H13.2a2.68,2.68,0,0,0,2.68-2.68V5.92A2.68,2.68,0,0,0,13.2,3.24H6.59Z"/><path class="cls-1" d="M16.27,7.54H11.51a.39.39,0,1,1,0-.77h4.76a.39.39,0,0,1,0,.77Z"/><path class="cls-1" d="M8.18,7.54H3.52a.39.39,0,0,1,0-.77H8.18a.39.39,0,1,1,0,.77Z"/><path class="cls-1" d="M9.9,12.24a3,3,0,1,1,3-3A3,3,0,0,1,9.9,12.24ZM9.9,7a2.24,2.24,0,1,0,2.24,2.24A2.24,2.24,0,0,0,9.9,7Z"/><path class="cls-1" d="M14.26,6.54H12.52a.39.39,0,0,1-.39-.39V4.42A.39.39,0,0,1,12.52,4h1.74a.39.39,0,0,1,.39.39V6.16A.39.39,0,0,1,14.26,6.54Zm-1.35-.77h1v-1h-1Z"/><rect class="cls-2" x="1.12" y="1.14" width="17.55" height="16.17" rx="2.3" ry="2.3"/></svg>