<svg id="Layer_1" data-name="Layer 1" xmlns="http://www.w3.org/2000/svg" viewBox="0 0 917 321.65"><defs><style>.cls-1{opacity:0.2;}.cls-2{fill:#c6e0e8;}.cls-3{fill:#faeae2;}.cls-4{fill:#e5966e;}</style></defs><title>pawprint_background</title><g class="cls-1"><path class="cls-2" d="M28.53,259.58a8.19,8.19,0,0,0-.41-1.43A4.7,4.7,0,0,0,27,256.37a4.5,4.5,0,0,0-7.39,1.81,4.08,4.08,0,0,0-.2,2.06,1.61,1.61,0,0,0,1.67,1.3,9.93,9.93,0,0,0,2.26-.36,4.18,4.18,0,0,1,1.15-.09,5.63,5.63,0,0,1,1.14.34c.77.24,1.87.49,2.54-.11a1.31,1.31,0,0,0,.39-.89A3.53,3.53,0,0,0,28.53,259.58Z"/><ellipse class="cls-2" cx="18.41" cy="255.44" rx="1.36" ry="2.28"/><ellipse class="cls-2" cx="22.12" cy="251.71" rx="1.36" ry="2.28"/><ellipse class="cls-2" cx="25.98" cy="251.94" rx="1.36" ry="2.28"/><ellipse class="cls-2" cx="29.8" cy="255.09" rx="1.36" ry="2.28"/></g><g class="cls-1"><path class="cls-2" d="M19.84,183.57a14.15,14.15,0,0,0-.71-2.47A8.13,8.13,0,0,0,17.21,178a7.78,7.78,0,0,0-12.77,3.14,7,7,0,0,0-.34,3.56A2.78,2.78,0,0,0,7,187a17.16,17.16,0,0,0,3.9-.63,7.23,7.23,0,0,1,2-.15,9.72,9.72,0,0,1,2,.58c1.33.41,3.23.84,4.39-.19a2.26,2.26,0,0,0,.68-1.53A6.1,6.1,0,0,0,19.84,183.57Z"/><ellipse class="cls-2" cx="2.34" cy="176.42" rx="2.34" ry="3.94"/><ellipse class="cls-2" cx="8.75" cy="169.97" rx="2.34" ry="3.94"/><ellipse class="cls-2" cx="15.41" cy="170.38" rx="2.34" ry="3.94"/><ellipse class="cls-2" cx="22.02" cy="175.82" rx="2.34" ry="3.94"/></g><rect class="cls-3" x="1.23" width="915.77" height="319.44" rx="4.32" ry="4.32"/><g class="cls-1"><path class="cls-4" d="M89.75,75.38a29.51,29.51,0,0,0-1.48-5.16,16.94,16.94,0,0,0-4-6.4,16.21,16.21,0,0,0-26.63,6.54,14.7,14.7,0,0,0-.71,7.42c.63,3.09,3,4.56,6,4.69,2.74.11,5.44-.79,8.13-1.31a15.08,15.08,0,0,1,4.15-.31,20.28,20.28,0,0,1,4.1,1.22c2.77.85,6.73,1.75,9.16-.4a4.7,4.7,0,0,0,1.42-3.19A12.73,12.73,0,0,0,89.75,75.38Z"/><ellipse class="cls-4" cx="53.27" cy="60.48" rx="4.89" ry="8.22"/><ellipse class="cls-4" cx="66.62" cy="47.03" rx="4.89" ry="8.22"/><ellipse class="cls-4" cx="80.52" cy="47.87" rx="4.89" ry="8.22"/><ellipse class="cls-4" cx="94.29" cy="59.22" rx="4.89" ry="8.22"/></g><g class="cls-1"><path class="cls-4" d="M324.14,188.77a21.87,21.87,0,0,0-1.1-3.83,12.56,12.56,0,0,0-3-4.75A12,12,0,0,0,300.35,185a10.89,10.89,0,0,0-.52,5.5c.47,2.29,2.2,3.38,4.47,3.48,2,.08,4-.59,6-1a11.18,11.18,0,0,1,3.08-.23,15,15,0,0,1,3,.9c2.05.63,5,1.3,6.79-.29a3.49,3.49,0,0,0,1.05-2.37A9.43,9.43,0,0,0,324.14,188.77Z"/><ellipse class="cls-4" cx="297.1" cy="177.72" rx="3.62" ry="6.09"/><ellipse class="cls-4" cx="307" cy="167.76" rx="3.62" ry="6.09"/><ellipse class="cls-4" cx="317.31" cy="168.38" rx="3.62" ry="6.09"/><ellipse class="cls-4" cx="327.51" cy="176.79" rx="3.62" ry="6.09"/></g><g class="cls-1"><path class="cls-4" d="M417.28,272.42a21.87,21.87,0,0,0-1.1-3.83,12.56,12.56,0,0,0-3-4.75,12,12,0,0,0-19.74,4.85,10.89,10.89,0,0,0-.52,5.5c.47,2.29,2.2,3.38,4.47,3.48,2,.08,4-.59,6-1a11.18,11.18,0,0,1,3.08-.23,15,15,0,0,1,3,.9c2.05.63,5,1.3,6.79-.29a3.49,3.49,0,0,0,1.05-2.37A9.43,9.43,0,0,0,417.28,272.42Z"/><ellipse class="cls-4" cx="390.24" cy="261.37" rx="3.62" ry="6.09"/><ellipse class="cls-4" cx="400.14" cy="251.41" rx="3.62" ry="6.09"/><ellipse class="cls-4" cx="410.45" cy="252.03" rx="3.62" ry="6.09"/><ellipse class="cls-4" cx="420.65" cy="260.44" rx="3.62" ry="6.09"/></g><g class="cls-1"><path class="cls-4" d="M653.16,219.85a17.21,17.21,0,0,0-.87-3,9.88,9.88,0,0,0-2.32-3.73,9.46,9.46,0,0,0-15.53,3.81,8.57,8.57,0,0,0-.41,4.33,3.38,3.38,0,0,0,3.52,2.73,20.87,20.87,0,0,0,4.74-.76,8.79,8.79,0,0,1,2.42-.18,11.82,11.82,0,0,1,2.39.71c1.62.5,3.92,1,5.34-.23a2.74,2.74,0,0,0,.83-1.86A7.42,7.42,0,0,0,653.16,219.85Z"/><ellipse class="cls-4" cx="631.88" cy="211.16" rx="2.85" ry="4.79"/><ellipse class="cls-4" cx="639.67" cy="203.32" rx="2.85" ry="4.79"/><ellipse class="cls-4" cx="647.78" cy="203.81" rx="2.85" ry="4.79"/><ellipse class="cls-4" cx="655.81" cy="210.43" rx="2.85" ry="4.79"/></g><g class="cls-1"><path class="cls-4" d="M747.21,70.12a17.21,17.21,0,0,0-.87-3A9.88,9.88,0,0,0,744,63.38a9.46,9.46,0,0,0-15.53,3.81,8.57,8.57,0,0,0-.41,4.33,3.38,3.38,0,0,0,3.52,2.73,20.87,20.87,0,0,0,4.74-.76,8.79,8.79,0,0,1,2.42-.18,11.82,11.82,0,0,1,2.39.71c1.62.5,3.92,1,5.34-.23a2.74,2.74,0,0,0,.83-1.86A7.42,7.42,0,0,0,747.21,70.12Z"/><ellipse class="cls-4" cx="725.94" cy="61.43" rx="2.85" ry="4.79"/><ellipse class="cls-4" cx="733.72" cy="53.59" rx="2.85" ry="4.79"/><ellipse class="cls-4" cx="741.83" cy="54.08" rx="2.85" ry="4.79"/><ellipse class="cls-4" cx="749.86" cy="60.7" rx="2.85" ry="4.79"/></g><g class="cls-1"><path class="cls-4" d="M317.51,227.18a9.71,9.71,0,0,0-.49-1.7,5.58,5.58,0,0,0-1.31-2.11,5.34,5.34,0,0,0-8.76,2.15,4.84,4.84,0,0,0-.23,2.44,1.91,1.91,0,0,0,2,1.54,11.78,11.78,0,0,0,2.67-.43,5,5,0,0,1,1.37-.1,6.67,6.67,0,0,1,1.35.4c.91.28,2.21.58,3-.13a1.55,1.55,0,0,0,.47-1.05A4.19,4.19,0,0,0,317.51,227.18Z"/><ellipse class="cls-4" cx="305.51" cy="222.28" rx="1.61" ry="2.7"/><ellipse class="cls-4" cx="309.9" cy="217.85" rx="1.61" ry="2.7"/><ellipse class="cls-4" cx="314.48" cy="218.13" rx="1.61" ry="2.7"/><ellipse class="cls-4" cx="319.01" cy="221.86" rx="1.61" ry="2.7"/></g><g class="cls-1"><path class="cls-4" d="M458.38,76.71a9.71,9.71,0,0,0-.49-1.7,5.58,5.58,0,0,0-1.31-2.11,5.34,5.34,0,0,0-8.76,2.15,4.84,4.84,0,0,0-.23,2.44,1.91,1.91,0,0,0,2,1.54,11.78,11.78,0,0,0,2.67-.43,5,5,0,0,1,1.37-.1,6.67,6.67,0,0,1,1.35.4c.91.28,2.21.58,3-.13a1.55,1.55,0,0,0,.47-1.05A4.19,4.19,0,0,0,458.38,76.71Z"/><ellipse class="cls-4" cx="446.37" cy="71.81" rx="1.61" ry="2.7"/><ellipse class="cls-4" cx="450.77" cy="67.39" rx="1.61" ry="2.7"/><ellipse class="cls-4" cx="455.34" cy="67.66" rx="1.61" ry="2.7"/><ellipse class="cls-4" cx="459.87" cy="71.39" rx="1.61" ry="2.7"/></g><g class="cls-1"><path class="cls-4" d="M544.49,231.64a9.71,9.71,0,0,0-.49-1.7,5.58,5.58,0,0,0-1.31-2.11,5.34,5.34,0,0,0-8.76,2.15,4.84,4.84,0,0,0-.23,2.44,1.91,1.91,0,0,0,2,1.54,11.78,11.78,0,0,0,2.67-.43,5,5,0,0,1,1.37-.1,6.67,6.67,0,0,1,1.35.4c.91.28,2.21.58,3-.13a1.55,1.55,0,0,0,.47-1.05A4.19,4.19,0,0,0,544.49,231.64Z"/><ellipse class="cls-4" cx="532.49" cy="226.74" rx="1.61" ry="2.7"/><ellipse class="cls-4" cx="536.88" cy="222.31" rx="1.61" ry="2.7"/><ellipse class="cls-4" cx="541.45" cy="222.59" rx="1.61" ry="2.7"/><ellipse class="cls-4" cx="545.99" cy="226.32" rx="1.61" ry="2.7"/></g><g class="cls-1"><path class="cls-4" d="M876.7,219a9.71,9.71,0,0,0-.49-1.7,5.58,5.58,0,0,0-1.31-2.11,5.34,5.34,0,0,0-8.76,2.15,4.84,4.84,0,0,0-.23,2.44,1.91,1.91,0,0,0,2,1.54,11.78,11.78,0,0,0,2.67-.43,5,5,0,0,1,1.37-.1,6.67,6.67,0,0,1,1.35.4c.91.28,2.21.58,3-.13a1.55,1.55,0,0,0,.47-1.05A4.19,4.19,0,0,0,876.7,219Z"/><ellipse class="cls-4" cx="864.7" cy="214.06" rx="1.61" ry="2.7"/><ellipse class="cls-4" cx="869.09" cy="209.63" rx="1.61" ry="2.7"/><ellipse class="cls-4" cx="873.67" cy="209.91" rx="1.61" ry="2.7"/><ellipse class="cls-4" cx="878.2" cy="213.64" rx="1.61" ry="2.7"/></g><g class="cls-1"><path class="cls-4" d="M329.93,39.13a17.21,17.21,0,0,0-.87-3,9.88,9.88,0,0,0-2.32-3.73A9.46,9.46,0,0,0,311.2,36.2a8.57,8.57,0,0,0-.41,4.33,3.38,3.38,0,0,0,3.52,2.73A20.87,20.87,0,0,0,319,42.5a8.79,8.79,0,0,1,2.42-.18,11.82,11.82,0,0,1,2.39.71c1.62.5,3.92,1,5.34-.23a2.74,2.74,0,0,0,.83-1.86A7.42,7.42,0,0,0,329.93,39.13Z"/><ellipse class="cls-4" cx="308.65" cy="30.44" rx="2.85" ry="4.79"/><ellipse class="cls-4" cx="316.44" cy="22.6" rx="2.85" ry="4.79"/><ellipse class="cls-4" cx="324.55" cy="23.09" rx="2.85" ry="4.79"/><ellipse class="cls-4" cx="332.58" cy="29.7" rx="2.85" ry="4.79"/></g><g class="cls-1"><path class="cls-4" d="M184,57.91a7.87,7.87,0,0,0-.4-1.38,4.52,4.52,0,0,0-1.06-1.71,4.32,4.32,0,0,0-7.1,1.74,3.92,3.92,0,0,0-.19,2,1.55,1.55,0,0,0,1.61,1.25,9.54,9.54,0,0,0,2.17-.35,4,4,0,0,1,1.11-.08,5.4,5.4,0,0,1,1.09.32,2.63,2.63,0,0,0,2.44-.11,1.25,1.25,0,0,0,.38-.85A3.39,3.39,0,0,0,184,57.91Z"/><ellipse class="cls-4" cx="174.32" cy="53.94" rx="1.3" ry="2.19"/><ellipse class="cls-4" cx="177.88" cy="50.35" rx="1.3" ry="2.19"/><ellipse class="cls-4" cx="181.59" cy="50.58" rx="1.3" ry="2.19"/><ellipse class="cls-4" cx="185.26" cy="53.6" rx="1.3" ry="2.19"/></g><g class="cls-1"><path class="cls-4" d="M80,238.13a17.21,17.21,0,0,0-.87-3,9.88,9.88,0,0,0-2.32-3.73,9.46,9.46,0,0,0-15.53,3.81,8.57,8.57,0,0,0-.41,4.33,3.38,3.38,0,0,0,3.52,2.73,20.87,20.87,0,0,0,4.74-.76,8.79,8.79,0,0,1,2.42-.18,11.82,11.82,0,0,1,2.39.71c1.62.5,3.92,1,5.34-.23a2.74,2.74,0,0,0,.83-1.86A7.42,7.42,0,0,0,80,238.13Z"/><ellipse class="cls-4" cx="58.7" cy="229.44" rx="2.85" ry="4.79"/><ellipse class="cls-4" cx="66.49" cy="221.6" rx="2.85" ry="4.79"/><ellipse class="cls-4" cx="74.59" cy="222.09" rx="2.85" ry="4.79"/><ellipse class="cls-4" cx="82.62" cy="228.7" rx="2.85" ry="4.79"/></g><g class="cls-1"><path class="cls-4" d="M437.76,69.63a17.21,17.21,0,0,0-.87-3,9.88,9.88,0,0,0-2.32-3.73A9.46,9.46,0,0,0,419,66.7a8.57,8.57,0,0,0-.41,4.33,3.38,3.38,0,0,0,3.52,2.73,20.87,20.87,0,0,0,4.74-.76,8.79,8.79,0,0,1,2.42-.18,11.82,11.82,0,0,1,2.39.71c1.62.5,3.92,1,5.34-.23a2.74,2.74,0,0,0,.83-1.86A7.42,7.42,0,0,0,437.76,69.63Z"/><ellipse class="cls-4" cx="416.49" cy="60.94" rx="2.85" ry="4.79"/><ellipse class="cls-4" cx="424.28" cy="53.1" rx="2.85" ry="4.79"/><ellipse class="cls-4" cx="432.38" cy="53.59" rx="2.85" ry="4.79"/><ellipse class="cls-4" cx="440.41" cy="60.21" rx="2.85" ry="4.79"/></g><g class="cls-1"><path class="cls-4" d="M602.65,57.24a17.21,17.21,0,0,0-.87-3,9.88,9.88,0,0,0-2.32-3.73,9.46,9.46,0,0,0-15.53,3.81,8.57,8.57,0,0,0-.41,4.33A3.38,3.38,0,0,0,587,61.37a20.87,20.87,0,0,0,4.74-.76,8.79,8.79,0,0,1,2.42-.18,11.82,11.82,0,0,1,2.39.71c1.62.5,3.92,1,5.34-.23a2.74,2.74,0,0,0,.83-1.86A7.42,7.42,0,0,0,602.65,57.24Z"/><ellipse class="cls-4" cx="581.38" cy="48.55" rx="2.85" ry="4.79"/><ellipse class="cls-4" cx="589.16" cy="40.71" rx="2.85" ry="4.79"/><ellipse class="cls-4" cx="597.27" cy="41.2" rx="2.85" ry="4.79"/><ellipse class="cls-4" cx="605.3" cy="47.82" rx="2.85" ry="4.79"/></g><g class="cls-1"><path class="cls-4" d="M522.39,223.59a17.21,17.21,0,0,0-.87-3,9.88,9.88,0,0,0-2.32-3.73,9.46,9.46,0,0,0-15.53,3.81,8.57,8.57,0,0,0-.41,4.33,3.38,3.38,0,0,0,3.52,2.73,20.87,20.87,0,0,0,4.74-.76,8.79,8.79,0,0,1,2.42-.18,11.82,11.82,0,0,1,2.39.71c1.62.5,3.92,1,5.34-.23a2.74,2.74,0,0,0,.83-1.86A7.42,7.42,0,0,0,522.39,223.59Z"/><ellipse class="cls-4" cx="501.12" cy="214.9" rx="2.85" ry="4.79"/><ellipse class="cls-4" cx="508.9" cy="207.06" rx="2.85" ry="4.79"/><ellipse class="cls-4" cx="517.01" cy="207.55" rx="2.85" ry="4.79"/><ellipse class="cls-4" cx="525.04" cy="214.16" rx="2.85" ry="4.79"/></g><g class="cls-1"><path class="cls-4" d="M816.17,143.83a29.7,29.7,0,0,0-1.49-5.19,17.05,17.05,0,0,0-4-6.44,16.32,16.32,0,0,0-26.81,6.58,14.79,14.79,0,0,0-.71,7.47c.64,3.11,3,4.59,6.07,4.72,2.76.12,5.47-.8,8.18-1.32a15.18,15.18,0,0,1,4.18-.31,20.41,20.41,0,0,1,4.12,1.22c2.79.86,6.77,1.76,9.22-.4a4.73,4.73,0,0,0,1.43-3.21A12.81,12.81,0,0,0,816.17,143.83Z"/><ellipse class="cls-4" cx="779.45" cy="128.84" rx="4.92" ry="8.27"/><ellipse class="cls-4" cx="792.89" cy="115.3" rx="4.92" ry="8.27"/><ellipse class="cls-4" cx="806.88" cy="116.15" rx="4.92" ry="8.27"/><ellipse class="cls-4" cx="820.74" cy="127.56" rx="4.92" ry="8.27"/></g><g class="cls-1"><path class="cls-4" d="M38.47,178.55a17.21,17.21,0,0,0-.87-3,9.88,9.88,0,0,0-2.32-3.73,9.46,9.46,0,0,0-15.53,3.81,8.57,8.57,0,0,0-.41,4.33,3.38,3.38,0,0,0,3.52,2.73,20.87,20.87,0,0,0,4.74-.76,8.79,8.79,0,0,1,2.42-.18,11.82,11.82,0,0,1,2.39.71c1.62.5,3.92,1,5.34-.23a2.74,2.74,0,0,0,.83-1.86A7.42,7.42,0,0,0,38.47,178.55Z"/><ellipse class="cls-4" cx="17.19" cy="169.86" rx="2.85" ry="4.79"/><ellipse class="cls-4" cx="24.98" cy="162.02" rx="2.85" ry="4.79"/><ellipse class="cls-4" cx="33.09" cy="162.51" rx="2.85" ry="4.79"/><ellipse class="cls-4" cx="41.12" cy="169.13" rx="2.85" ry="4.79"/></g></svg>