<svg id="Layer_1" data-name="Layer 1" xmlns="http://www.w3.org/2000/svg" viewBox="0 0 454.66 150.04"><defs><style>.cls-1{font-size:60px;font-family:ArialRoundedMTBold, Arial Rounded MT Bold;}.cls-1,.cls-7,.cls-8{fill:#a6a8ab;}.cls-2{letter-spacing:-0.04em;}.cls-3{fill:#f37c46;letter-spacing:-0.16em;}.cls-4,.cls-5,.cls-6,.cls-9{fill:#f1f1f2;}.cls-4{letter-spacing:-0.01em;}.cls-6{letter-spacing:-0.02em;}.cls-8{stroke:#a6a8ab;}.cls-8,.cls-9{stroke-miterlimit:10;}.cls-9{stroke:#f1f1f2;stroke-width:2px;}</style></defs><title>Artboard 5</title><text class="cls-1" transform="matrix(1, 0, 0, 1, 148.37, 89.1)"><tspan class="cls-2">P</tspan><tspan x="37.73" y="0">ets</tspan><tspan class="cls-3" x="127.15" y="0"> </tspan><tspan class="cls-4" x="132.55" y="0">F</tspan><tspan class="cls-5" x="168" y="0">i</tspan><tspan class="cls-6" x="184.26" y="0">r</tspan><tspan class="cls-5" x="209.04" y="0">st!</tspan></text><path class="cls-7" d="M100.68,41.62,86.81,29l11.31-6.14h2.58l2,5,1.16,4.84Z"/><path class="cls-7" d="M100.67,42.66a1.05,1.05,0,0,1-.7-.27L86.11,29.79a1,1,0,0,1-.33-.9,1,1,0,0,1,.53-.79L97.62,22a1,1,0,0,1,.5-.13h2.58a1,1,0,0,1,1,.65l2,5,1.21,5a1,1,0,0,1,0,.6L101.65,42a1,1,0,0,1-.73.65ZM88.59,29.24l11.64,10.57,2.59-7.14-1.09-4.53L100,23.92H98.38Z"/><circle class="cls-7" cx="70.8" cy="31.71" r="5.31" transform="translate(39.01 102.47) rotate(-89.94)"/><circle class="cls-5" cx="105" cy="78.31" r="5.31" transform="translate(26.57 183.23) rotate(-89.94)"/><path class="cls-8" d="M53.27,25.7a15.78,15.78,0,0,0-7.19,7.22c-1.77,4-.79,7.53.25,11.3,1,3.56,2.1,7.6,1.11,12.88-.45,2.42-1.07,5.73-3.66,7.42-3.55,2.33-8.59.32-9.89-.27a63.58,63.58,0,0,1-9.2-9c-4.75-5.68-11.26-13.47-9.26-19.63.56-1.72,2.37-5,8.19-7.43A198.69,198.69,0,0,1,77,15.84c11.3-2,22.15,4.17,24.72,13.91,1.72,6.49-.66,13.86-6,19.09l-.76.52,3,1.09c5.9-6,8.4-14.15,6.49-21.41-2.94-11.12-15.18-18.11-27.76-15.94A201,201,0,0,0,22.58,25.6c-6.88,2.91-9.09,7-9.79,9.15-2.48,7.62,4.6,16.08,9.93,22.45a65.62,65.62,0,0,0,9.58,9.33,1.39,1.39,0,0,0,.27.17c1.77.83,7.93,3.3,12.73.14,3.56-2.34,4.34-6.48,4.86-9.23,1.12-5.91-.09-10.28-1.16-14.13-1-3.55-1.76-6.36-.39-9.43a13.08,13.08,0,0,1,6-5.92,1.38,1.38,0,1,0-1.33-2.43Z"/><path class="cls-8" d="M39.72,68.89a18.39,18.39,0,0,1-7.37-1.75,1.93,1.93,0,0,1-.37-.23,66.14,66.14,0,0,1-9.65-9.4c-5.31-6.35-12.58-15-10-22.91.73-2.24,3-6.46,10.06-9.44A201.52,201.52,0,0,1,76.63,12.6c12.82-2.21,25.27,5,28.28,16.31,1.94,7.35-.59,15.73-6.61,21.87l-.22.23-4.18-1.53,1.55-1.05c5.24-5.11,7.5-12.24,5.83-18.55-2.51-9.5-13.13-15.46-24.17-13.55a200.87,200.87,0,0,0-26.22,4.11,198.69,198.69,0,0,0-27.1,8.2c-5.63,2.39-7.36,5.49-7.9,7.13-1.92,5.9,4.49,13.57,9.17,19.16a62.73,62.73,0,0,0,9.08,8.91c1.1.49,6,2.47,9.37.28,2.41-1.58,3-4.77,3.44-7.09,1-5.18-.13-9.16-1.1-12.67-1.06-3.85-2.07-7.49-.23-11.63A16.25,16.25,0,0,1,53,25.26h0a1.88,1.88,0,0,1,1.8,3.29,12.6,12.6,0,0,0-5.77,5.69c-1.3,2.91-.54,5.64.41,9.1,1.08,3.92,2.3,8.34,1.17,14.35-.53,2.82-1.33,7.09-5.07,9.54A10.47,10.47,0,0,1,39.72,68.89Zm41.59-55.7a26.72,26.72,0,0,0-4.55.39,200.6,200.6,0,0,0-54,12.49c-6.68,2.83-8.82,6.75-9.5,8.84-2.39,7.36,4.67,15.81,9.84,22a65.17,65.17,0,0,0,9.51,9.26l.18.11c1.71.8,7.67,3.19,12.25.18,3.39-2.23,4.15-6.25,4.65-8.91,1.09-5.79-.1-10.1-1.14-13.9s-1.81-6.54-.37-9.78a13.54,13.54,0,0,1,6.2-6.15.89.89,0,1,0-.86-1.57,15.3,15.3,0,0,0-7,7c-1.7,3.82-.74,7.29.27,11s2.13,7.71,1.12,13.11c-.47,2.51-1.12,5.93-3.87,7.74-3.73,2.45-8.88.44-10.36-.23l-.1-.06a63.76,63.76,0,0,1-9.27-9.08C19.48,49.78,12.87,41.87,15,35.45c.59-1.8,2.46-5.19,8.46-7.73A199.23,199.23,0,0,1,77,15.35c11.49-2,22.6,4.28,25.24,14.27,1.76,6.65-.6,14.15-6.16,19.56l0,0,1.8.66c5.62-5.88,8-13.78,6.14-20.71C101.43,19.64,91.94,13.2,81.31,13.19Z"/><path class="cls-8" d="M74.88,66.31l-.4-2.07-.16-.89L57.25,74.93a1.39,1.39,0,0,0-.59,1.39l8.6,47.44a1.39,1.39,0,0,0,1.36,1.14l.25,0A1.39,1.39,0,0,0,68,123.27L59.55,76.72Z"/><path class="cls-8" d="M66.63,125.4a1.87,1.87,0,0,1-1.84-1.54l-8.6-47.44A1.88,1.88,0,0,1,57,74.53l17.69-12,.76,4L60.09,76.95l8.39,46.24A1.88,1.88,0,0,1,67,125.37,1.79,1.79,0,0,1,66.63,125.4ZM74,64.18,57.53,75.34a.9.9,0,0,0-.38.9l8.6,47.44a.89.89,0,0,0,1,.72.9.9,0,0,0,.73-1L59,76.49,74.34,66.08Z"/><path class="cls-9" d="M93.06,122.5a1.38,1.38,0,0,1-1.22-.73A188.73,188.73,0,0,1,70.3,50.24a1.48,1.48,0,0,1,0-.31c.49-3.72,1.84-6.27,4-7.58,3.89-2.34,8.53.29,13.91,3.36,4.15,2.36,8.84,5,14.22,6.2,8.55,1.85,18.25-.42,28.82-6.74a1.38,1.38,0,1,1,1.42,2.38c-11.19,6.7-21.56,9.07-30.83,7.07-5.78-1.25-10.68-4-15-6.5-4.81-2.74-8.62-4.9-11.11-3.39-1.38.84-2.28,2.66-2.67,5.42a186,186,0,0,0,21.21,70.32,1.39,1.39,0,0,1-1.22,2Z"/><path class="cls-9" d="M93.06,123a1.87,1.87,0,0,1-1.65-1,189.25,189.25,0,0,1-21.6-71.71,2.07,2.07,0,0,1,0-.42c.51-3.87,1.93-6.54,4.24-7.94,4.14-2.5,8.9.21,14.41,3.35,4.12,2.34,8.78,5,14.08,6.14,8.41,1.83,18-.42,28.47-6.68a1.88,1.88,0,0,1,2.57.65,1.87,1.87,0,0,1-.65,2.57c-11.3,6.76-21.78,9.16-31.19,7.13C95.89,53.83,91,51,86.61,48.54c-4.67-2.66-8.36-4.76-10.61-3.4-1.24.75-2.06,2.44-2.43,5a185.49,185.49,0,0,0,21.15,70.08,1.87,1.87,0,0,1-.77,2.54A1.89,1.89,0,0,1,93.06,123Zm-15.45-81a5.76,5.76,0,0,0-3,.82c-2,1.23-3.3,3.66-3.77,7.22a.94.94,0,0,0,0,.21,188.25,188.25,0,0,0,21.49,71.33.91.91,0,0,0,1.21.37.89.89,0,0,0,.37-1.21,186.47,186.47,0,0,1-21.27-70.5v-.11c.41-2.91,1.38-4.85,2.9-5.77,2.74-1.66,6.65.57,11.61,3.39,4.29,2.44,9.15,5.21,14.86,6.44,9.14,2,19.4-.38,30.47-7a.89.89,0,0,0,.41-.55.88.88,0,0,0-.1-.67.9.9,0,0,0-1.23-.31C120.82,52,111,54.27,102.33,52.39,96.89,51.21,92.15,48.51,88,46.14,84.11,43.93,80.63,42,77.61,41.95Z"/><path class="cls-9" d="M95.52,96a42.23,42.23,0,0,1-25.77-8.75A1.38,1.38,0,1,1,71.44,85a39.44,39.44,0,0,0,13.37,6.71,39.85,39.85,0,0,0,16.73,1,1.38,1.38,0,0,1,.42,2.74A42.52,42.52,0,0,1,95.52,96Z"/><path class="cls-9" d="M95.52,96.46a42.73,42.73,0,0,1-26.06-8.85,1.88,1.88,0,1,1,2.28-3,39,39,0,0,0,13.21,6.62,39.37,39.37,0,0,0,16.52,1A1.88,1.88,0,0,1,102,96,43.15,43.15,0,0,1,95.52,96.46ZM70.6,85.22a.89.89,0,0,0-.55,1.6A41.7,41.7,0,0,0,84.2,93.92,42.3,42.3,0,0,0,101.88,95a.89.89,0,1,0-.27-1.77,40,40,0,0,1-30.47-7.82A.89.89,0,0,0,70.6,85.22Z"/><circle class="cls-5" cx="131.78" cy="73.09" r="5.31" transform="translate(58.54 204.78) rotate(-89.94)"/><path class="cls-5" d="M121.72,89.86l4.77-.54c1.22-.14,2.12.89,1.6,1.85l-2,3.75-2,3.75a1.76,1.76,0,0,1-2.75.31l-2.78-3.21-2.78-3.21c-.71-.82-.07-2,1.15-2.16Z"/><path class="cls-7" d="M162.18,129.61l-10.59-27.42h3.93l7.1,19.92q.86,2.39,1.43,4.49.64-2.24,1.48-4.49l7.43-19.9h3.7L165.9,129.61Z"/><path class="cls-7" d="M190.94,123.25l3.48.43a8.49,8.49,0,0,1-3.05,4.73,10.32,10.32,0,0,1-12.59-1q-2.55-2.69-2.54-7.53,0-5,2.59-7.77a8.72,8.72,0,0,1,6.69-2.76,8.49,8.49,0,0,1,6.5,2.72q2.52,2.71,2.51,7.63c0,.2,0,.5,0,.9l-14.81,0a7.63,7.63,0,0,0,1.85,5,5.52,5.52,0,0,0,4.15,1.74,5.16,5.16,0,0,0,3.16-1A6.45,6.45,0,0,0,190.94,123.25Zm-11-5.45H191a6.75,6.75,0,0,0-1.27-3.76,5.15,5.15,0,0,0-4.17-1.95,5.34,5.34,0,0,0-3.9,1.55A6.14,6.14,0,0,0,179.89,117.8Z"/><path class="cls-7" d="M206,126.65l.48,3a12.29,12.29,0,0,1-2.54.3,5.77,5.77,0,0,1-2.84-.58,3.27,3.27,0,0,1-1.42-1.53,12.1,12.1,0,0,1-.41-4V112.42H196.8V109.8h2.47v-4.92l3.35-2v6.94H206v2.62h-3.38V124a5.83,5.83,0,0,0,.18,1.85,1.37,1.37,0,0,0,.58.65,2.24,2.24,0,0,0,1.15.25A11.16,11.16,0,0,0,206,126.65Z"/><path class="cls-7" d="M222.86,123.29l3.48.43a8.46,8.46,0,0,1-3.05,4.73,10.31,10.31,0,0,1-12.59-1q-2.55-2.69-2.54-7.53,0-5,2.59-7.78a8.75,8.75,0,0,1,6.69-2.76,8.49,8.49,0,0,1,6.5,2.72q2.52,2.71,2.51,7.63c0,.2,0,.5,0,.9H211.63a7.62,7.62,0,0,0,1.85,5,5.51,5.51,0,0,0,4.15,1.75,5.16,5.16,0,0,0,3.16-1A6.46,6.46,0,0,0,222.86,123.29Zm-11-5.45h11.09a6.73,6.73,0,0,0-1.27-3.76,5.15,5.15,0,0,0-4.17-1.95,5.34,5.34,0,0,0-3.9,1.54A6.15,6.15,0,0,0,211.82,117.83Z"/><path class="cls-7" d="M230.52,129.69l0-19.85h3v3a8.23,8.23,0,0,1,2.14-2.78,3.7,3.7,0,0,1,2.16-.67,6.55,6.55,0,0,1,3.46,1.09l-1.16,3.12a4.81,4.81,0,0,0-2.47-.73,3.18,3.18,0,0,0-2,.66,3.61,3.61,0,0,0-1.25,1.84,13.06,13.06,0,0,0-.57,3.92v10.39Z"/><path class="cls-7" d="M243.33,129.7l0-19.85h3.36l0,19.85Zm0-23.54V102.3h3.36v3.87Z"/><path class="cls-7" d="M251.81,129.71l0-19.85h3v2.82a7.14,7.14,0,0,1,6.32-3.26,8.29,8.29,0,0,1,3.3.65,5.21,5.21,0,0,1,2.25,1.69,6.51,6.51,0,0,1,1,2.49,19.28,19.28,0,0,1,.18,3.27v12.21h-3.36V117.65a9.09,9.09,0,0,0-.39-3.08,3.21,3.21,0,0,0-1.39-1.63,4.43,4.43,0,0,0-2.34-.61,5.46,5.46,0,0,0-3.71,1.36q-1.56,1.36-1.57,5.18v10.84Z"/><path class="cls-7" d="M286.06,127.3a12.5,12.5,0,0,1-3.6,2.24,10.45,10.45,0,0,1-3.71.65,7.23,7.23,0,0,1-5-1.6A5.28,5.28,0,0,1,272,124.5a5.54,5.54,0,0,1,2.41-4.59,8.21,8.21,0,0,1,2.42-1.1,24.43,24.43,0,0,1,3-.5,30.73,30.73,0,0,0,6-1.15c0-.46,0-.76,0-.88a3.71,3.71,0,0,0-.95-2.9,5.61,5.61,0,0,0-3.83-1.14,5.94,5.94,0,0,0-3.51.83,5.08,5.08,0,0,0-1.67,2.94l-3.29-.45a8.14,8.14,0,0,1,1.48-3.41,6.47,6.47,0,0,1,3-2,13.17,13.17,0,0,1,4.51-.7,11.89,11.89,0,0,1,4.13.6,5.43,5.43,0,0,1,2.33,1.51,5.3,5.3,0,0,1,1,2.29,19.06,19.06,0,0,1,.16,3.1v4.49a47.24,47.24,0,0,0,.21,5.94,7.48,7.48,0,0,0,.85,2.38h-3.51A7.09,7.09,0,0,1,286.06,127.3Zm-.27-7.51a24.53,24.53,0,0,1-5.5,1.26,12.83,12.83,0,0,0-2.93.67,2.94,2.94,0,0,0-1.33,1.1,3,3,0,0,0,.55,3.84,4.38,4.38,0,0,0,3,.9,6.93,6.93,0,0,0,3.46-.84,5.25,5.25,0,0,0,2.23-2.33,8.14,8.14,0,0,0,.55-3.36Z"/><path class="cls-7" d="M294.36,129.76l0-19.85h3v3a8.23,8.23,0,0,1,2.14-2.78,3.73,3.73,0,0,1,2.16-.67,6.55,6.55,0,0,1,3.46,1.09L304,113.67a4.81,4.81,0,0,0-2.47-.73,3.16,3.16,0,0,0-2,.66,3.59,3.59,0,0,0-1.25,1.84,13.1,13.1,0,0,0-.57,3.93v10.39Z"/><path class="cls-7" d="M307,137.42l-.37-3.16a7.39,7.39,0,0,0,1.92.3,3.69,3.69,0,0,0,1.8-.37,3,3,0,0,0,1.1-1,16.7,16.7,0,0,0,1-2.5c.06-.19.16-.46.3-.82l-7.51-19.9h3.63l4.12,11.5q.8,2.19,1.44,4.6a44.51,44.51,0,0,1,1.39-4.52l4.26-11.57h3.36l-7.57,20.18a38.91,38.91,0,0,1-1.89,4.5,6.63,6.63,0,0,1-2.06,2.44,4.84,4.84,0,0,1-2.77.77A6.67,6.67,0,0,1,307,137.42Z"/><path class="cls-7" d="M356.92,120.22l3.62.92a12.2,12.2,0,0,1-4.11,6.81,11.29,11.29,0,0,1-7.25,2.34,13,13,0,0,1-7.2-1.81,11.27,11.27,0,0,1-4.22-5.23,18.66,18.66,0,0,1-1.44-7.35,16.15,16.15,0,0,1,1.64-7.47,11.21,11.21,0,0,1,4.66-4.84,13.61,13.61,0,0,1,6.65-1.65,11.24,11.24,0,0,1,6.91,2.1,10.88,10.88,0,0,1,3.9,5.89l-3.57.84a8.46,8.46,0,0,0-2.76-4.36,7.37,7.37,0,0,0-4.56-1.37,8.87,8.87,0,0,0-5.28,1.51,8,8,0,0,0-3,4.06,16.35,16.35,0,0,0-.87,5.26,16.7,16.7,0,0,0,1,6.11,7.57,7.57,0,0,0,3.16,3.9,8.89,8.89,0,0,0,4.65,1.3,7.79,7.79,0,0,0,5.16-1.75A9,9,0,0,0,356.92,120.22Z"/><path class="cls-7" d="M364.5,129.84l0-27.41h3.36l0,27.41Z"/><path class="cls-7" d="M373.1,129.85l0-19.85h3.36l0,19.85Zm0-23.54v-3.87h3.36v3.87Z"/><path class="cls-7" d="M381.59,129.86l0-19.85h3v2.82a7.15,7.15,0,0,1,6.32-3.27,8.36,8.36,0,0,1,3.3.65,5.18,5.18,0,0,1,2.25,1.69,6.52,6.52,0,0,1,1,2.49,19.36,19.36,0,0,1,.18,3.28v12.21h-3.36V117.8a9.07,9.07,0,0,0-.39-3.08,3.23,3.23,0,0,0-1.39-1.63,4.47,4.47,0,0,0-2.34-.61,5.46,5.46,0,0,0-3.71,1.36Q385,115.2,385,119v10.84Z"/><path class="cls-7" d="M402.9,129.88l0-19.85h3.36l0,19.85Zm0-23.54v-3.87h3.36v3.87Z"/><path class="cls-7" d="M424.35,122.63l3.31.43a8.57,8.57,0,0,1-2.78,5.35,8.07,8.07,0,0,1-5.49,1.93,8.53,8.53,0,0,1-6.55-2.67q-2.47-2.67-2.47-7.64a13.79,13.79,0,0,1,1.07-5.62,7.43,7.43,0,0,1,3.25-3.62,9.62,9.62,0,0,1,4.74-1.2,8.24,8.24,0,0,1,5.29,1.64,7.51,7.51,0,0,1,2.63,4.65l-3.27.5a5.43,5.43,0,0,0-1.65-3,4.27,4.27,0,0,0-2.87-1,5.23,5.23,0,0,0-4.13,1.82q-1.59,1.82-1.6,5.77t1.53,5.82a5,5,0,0,0,4,1.82,4.72,4.72,0,0,0,3.31-1.21A6,6,0,0,0,424.35,122.63Z"/></svg>