<svg id="Layer_1" data-name="Layer 1" xmlns="http://www.w3.org/2000/svg" viewBox="0 0 170.61 150.04"><defs><style>.cls-1{fill:#395a77;stroke:#395b77;stroke-miterlimit:10;}</style></defs><title>PF_icon</title><path class="cls-1" d="M113.36,55,99.83,42.71l11-6h2.52l2,4.88,1.13,4.72Z"/><path class="cls-1" d="M113.36,56a1,1,0,0,1-.68-.26L99.15,43.46a1,1,0,0,1-.32-.87,1,1,0,0,1,.52-.77l11-6a1,1,0,0,1,.49-.12h2.51a1,1,0,0,1,.94.63l2,4.88,1.18,4.86a1,1,0,0,1,0,.58l-3.15,8.67a1,1,0,0,1-.71.64ZM101.57,42.92l11.35,10.31,2.53-7-1.06-4.42-1.69-4.1h-1.58Z"/><circle class="cls-1" cx="84.21" cy="45.33" r="5.18" transform="translate(38.79 129.49) rotate(-89.94)"/><circle class="cls-1" cx="117.58" cy="90.79" r="5.18" transform="translate(26.66 208.27) rotate(-89.94)"/><path class="cls-1" d="M67.11,39.46a15.39,15.39,0,0,0-7,7c-1.73,3.88-.77,7.35.24,11,1,3.47,2,7.41,1.08,12.57-.44,2.36-1,5.58-3.57,7.24-3.46,2.27-8.38.31-9.65-.27a62,62,0,0,1-9-8.79c-4.64-5.54-11-13.14-9-19.15.55-1.67,2.31-4.84,8-7.25a193.82,193.82,0,0,1,52.11-12c11-1.9,21.61,4.06,24.12,13.57,1.68,6.33-.65,13.52-5.88,18.62l-.74.5,2.91,1.07c5.76-5.88,8.2-13.81,6.33-20.88-2.87-10.84-14.81-17.66-27.08-15.55a196.12,196.12,0,0,0-52.77,12.2c-6.71,2.84-8.86,6.81-9.55,8.92-2.42,7.43,4.49,15.69,9.68,21.9a64,64,0,0,0,9.35,9.1,1.36,1.36,0,0,0,.26.16c1.73.81,7.73,3.22,12.42.14,3.48-2.29,4.24-6.33,4.74-9,1.09-5.77-.09-10-1.13-13.79-1-3.47-1.72-6.21-.38-9.2a12.76,12.76,0,0,1,5.84-5.77,1.35,1.35,0,1,0-1.3-2.37Z"/><path class="cls-1" d="M53.9,81.59a17.93,17.93,0,0,1-7.19-1.71,1.88,1.88,0,0,1-.36-.22,64.52,64.52,0,0,1-9.41-9.17c-5.18-6.19-12.27-14.67-9.77-22.35.71-2.19,2.93-6.3,9.82-9.21A196.58,196.58,0,0,1,89.9,26.69c12.51-2.16,24.65,4.83,27.58,15.91,1.89,7.17-.58,15.34-6.45,21.34l-.22.22-4.08-1.5,1.52-1c5.11-5,7.32-11.94,5.69-18.1-2.45-9.27-12.8-15.08-23.57-13.22a195.94,195.94,0,0,0-25.58,4,193.82,193.82,0,0,0-26.44,8c-5.49,2.33-7.18,5.36-7.7,7C28.78,55,35,62.51,39.6,68a61.2,61.2,0,0,0,8.86,8.69c1.07.48,5.88,2.41,9.14.28C59.94,75.39,60.53,72.28,61,70c1-5.06-.12-8.94-1.07-12.36-1-3.76-2-7.31-.22-11.34A15.85,15.85,0,0,1,66.88,39h0a1.83,1.83,0,0,1,1.75,3.21A12.29,12.29,0,0,0,63,47.8c-1.27,2.84-.53,5.51.4,8.88,1.05,3.82,2.25,8.13,1.14,14C64,73.43,63.25,77.59,59.6,80A10.21,10.21,0,0,1,53.9,81.59ZM94.47,27.26a26.06,26.06,0,0,0-4.44.38A195.68,195.68,0,0,0,37.35,39.82c-6.52,2.76-8.6,6.59-9.26,8.62-2.34,7.18,4.56,15.42,9.59,21.44a63.57,63.57,0,0,0,9.28,9l.17.11c1.67.78,7.48,3.11,12,.17,3.31-2.17,4-6.09,4.53-8.69,1.07-5.65-.09-9.85-1.12-13.56s-1.77-6.38-.36-9.54a13.21,13.21,0,0,1,6-6,.87.87,0,1,0-.84-1.53,14.92,14.92,0,0,0-6.8,6.82c-1.66,3.72-.72,7.11.27,10.7s2.08,7.52,1.09,12.78c-.46,2.45-1.09,5.79-3.78,7.55-3.64,2.39-8.66.43-10.11-.23l-.1-.06a62.19,62.19,0,0,1-9-8.86C34.15,62.95,27.7,55.24,29.74,49c.57-1.75,2.4-5.06,8.26-7.54A194.35,194.35,0,0,1,90.25,29.37c11.21-1.94,22,4.17,24.62,13.92,1.72,6.49-.59,13.8-6,19.08l0,0,1.75.64c5.48-5.73,7.78-13.45,6-20.2C114.1,33.55,104.84,27.27,94.47,27.26Z"/><path class="cls-1" d="M88.2,79.08l-.39-2-.16-.87L71,87.49a1.36,1.36,0,0,0-.57,1.36l8.39,46.28a1.35,1.35,0,0,0,1.33,1.11l.25,0a1.35,1.35,0,0,0,1.09-1.57L73.25,89.23Z"/><path class="cls-1" d="M80.15,136.72a1.83,1.83,0,0,1-1.8-1.5L70,88.93a1.84,1.84,0,0,1,.77-1.84L88,75.38l.74,3.91-15,10.16L82,134.56a1.83,1.83,0,0,1-1.48,2.13A1.75,1.75,0,0,1,80.15,136.72ZM87.31,77l-16,10.88a.88.88,0,0,0-.37.88L79.29,135a.87.87,0,0,0,1,.7.88.88,0,0,0,.71-1L72.72,89,87.67,78.86Z"/><path class="cls-1" d="M105.93,133.89a1.35,1.35,0,0,1-1.19-.71,184.1,184.1,0,0,1-21-69.77,1.45,1.45,0,0,1,0-.3c.48-3.63,1.79-6.12,3.91-7.39C91.43,53.42,96,56,101.21,59c4,2.3,8.63,4.91,13.87,6,8.34,1.81,17.8-.41,28.12-6.58a1.35,1.35,0,1,1,1.39,2.32c-10.92,6.54-21,8.85-30.07,6.9-5.64-1.22-10.42-3.94-14.63-6.34C95.18,58.66,91.47,56.55,89,58c-1.35.82-2.22,2.59-2.6,5.28a181.42,181.42,0,0,0,20.69,68.59,1.35,1.35,0,0,1-1.19,2Z"/><path class="cls-1" d="M105.93,134.36a1.83,1.83,0,0,1-1.61-1A184.61,184.61,0,0,1,83.25,63.45a2,2,0,0,1,0-.41c.5-3.78,1.89-6.38,4.13-7.74,4-2.43,8.68.21,14.06,3.27,4,2.29,8.56,4.88,13.73,6,8.21,1.78,17.55-.41,27.77-6.52a1.84,1.84,0,0,1,2.51.63,1.83,1.83,0,0,1-.63,2.51c-11,6.6-21.25,8.93-30.42,7-5.71-1.24-10.52-4-14.77-6.39-4.56-2.6-8.16-4.65-10.35-3.32-1.21.73-2,2.38-2.37,4.89a180.94,180.94,0,0,0,20.63,68.36,1.83,1.83,0,0,1-.75,2.47A1.84,1.84,0,0,1,105.93,134.36ZM90.85,55.31a5.62,5.62,0,0,0-3,.8c-2,1.2-3.22,3.57-3.68,7a.92.92,0,0,0,0,.2,183.63,183.63,0,0,0,21,69.58.89.89,0,0,0,1.18.36.87.87,0,0,0,.36-1.18A181.89,181.89,0,0,1,86,63.35v-.11c.4-2.84,1.35-4.73,2.83-5.63,2.67-1.62,6.49.55,11.32,3.3C104.29,63.3,109,66,114.6,67.2c8.92,1.93,18.92-.37,29.73-6.84a.87.87,0,0,0,.4-.54.86.86,0,0,0-.1-.66.88.88,0,0,0-1.2-.3C133,65.1,123.43,67.33,115,65.5c-5.31-1.15-9.93-3.78-14-6.1C97.2,57.25,93.8,55.32,90.85,55.31Z"/><path class="cls-1" d="M108.33,108A41.19,41.19,0,0,1,83.2,99.47a1.35,1.35,0,1,1,1.64-2.14,38.47,38.47,0,0,0,13,6.54,38.87,38.87,0,0,0,16.32,1,1.35,1.35,0,0,1,.41,2.67A41.48,41.48,0,0,1,108.33,108Z"/><path class="cls-1" d="M108.33,108.49A41.68,41.68,0,0,1,82.9,99.85a1.83,1.83,0,1,1,2.23-2.9A38,38,0,0,0,98,103.41a38.41,38.41,0,0,0,16.11,1,1.83,1.83,0,0,1,.55,3.62A42.09,42.09,0,0,1,108.33,108.49ZM84,97.53a.87.87,0,0,0-.53,1.56A40.68,40.68,0,0,0,97.28,106a41.27,41.27,0,0,0,17.25,1.05.87.87,0,1,0-.27-1.72,39.06,39.06,0,0,1-29.72-7.63A.87.87,0,0,0,84,97.53Z"/><circle class="cls-1" cx="143.7" cy="85.69" r="5.18" transform="translate(57.85 229.29) rotate(-89.94)"/><path class="cls-1" d="M133.89,102l4.66-.53c1.19-.14,2.06.87,1.56,1.81L138.17,107l-1.94,3.66a1.72,1.72,0,0,1-2.69.3l-2.71-3.13-2.71-3.13c-.7-.8-.07-2,1.12-2.11Z"/><path class="cls-1" d="M85.72,141.72A66.7,66.7,0,1,1,152.42,75,66.77,66.77,0,0,1,85.72,141.72ZM85.72,14A61.05,61.05,0,1,0,146.77,75,61.12,61.12,0,0,0,85.72,14Z"/></svg>