<svg xmlns="http://www.w3.org/2000/svg" viewBox="0 0 97.45 97.45"><defs><style>.cls-1{fill:#5c9bad;}.cls-2{fill:#fff;}</style></defs><title>Asset 3</title><g id="Layer_2" data-name="Layer 2"><g id="Layer_1-2" data-name="Layer 1"><circle class="cls-1" cx="48.73" cy="48.73" r="48.73"/><path class="cls-2" d="M77,32.23,69,24.29a5.59,5.59,0,0,0-7.9,0L59,26.39a5.6,5.6,0,0,0-1,6.54L41.47,46.18H20.87a2,2,0,0,0-2,2,27.6,27.6,0,0,0,55.2,0,2,2,0,0,0-2-2H66l2.36-2.94a5.6,5.6,0,0,0,6.54-1l2.1-2.1a5.59,5.59,0,0,0,0-7.9ZM46.44,71.75A23.58,23.58,0,0,1,23,50.23H69.91A23.58,23.58,0,0,1,46.44,71.75ZM74.11,37.27,72,39.37h0a1.54,1.54,0,0,1-2.17,0l-.4-.4a2,2,0,0,0-3,.17l-5.64,7H48L62.13,34.84a2,2,0,0,0,.17-3l-.4-.4a1.54,1.54,0,0,1,0-2.17l2.1-2.1a1.54,1.54,0,0,1,2.17,0l7.94,7.94a1.53,1.53,0,0,1,0,2.17Z"/><path class="cls-2" d="M41.86,63h2.56v2.56a2,2,0,0,0,4.05,0V63H51A2,2,0,1,0,51,59H48.47V56.4a2,2,0,0,0-4.05,0V59H41.86a2,2,0,1,0,0,4.05Z"/></g></g></svg>