<svg id="Layer_1" data-name="Layer 1" xmlns="http://www.w3.org/2000/svg" viewBox="0 0 49.49 49.01"><defs><style>.cls-1{fill:#5c9bad;}.cls-2{fill:#fff;}</style></defs><title>pharmacy</title><circle class="cls-1" cx="24.74" cy="24.11" r="22.77"/><path class="cls-2" d="M37.94,16.4l-3.71-3.71a2.61,2.61,0,0,0-3.69,0l-1,1a2.62,2.62,0,0,0-.47,3.06l-7.74,6.19H11.73a1,1,0,0,0-.95.95,12.9,12.9,0,0,0,25.8,0,1,1,0,0,0-.95-.95H32.8l1.1-1.38A2.62,2.62,0,0,0,37,21.08l1-1a2.61,2.61,0,0,0,0-3.69ZM23.68,34.87a11,11,0,0,1-11-10.06H34.64A11,11,0,0,1,23.68,34.87ZM36.61,18.75l-1,1h0a.72.72,0,0,1-1,0l-.19-.19a.95.95,0,0,0-1.41.08l-2.63,3.29h-6L31,17.62a.95.95,0,0,0,.08-1.41L30.9,16a.72.72,0,0,1,0-1l1-1a.72.72,0,0,1,1,0l3.71,3.71a.72.72,0,0,1,0,1Z"/><path class="cls-2" d="M21.53,30.79h1.2V32a.95.95,0,0,0,1.89,0v-1.2h1.2a.95.95,0,1,0,0-1.89h-1.2V27.7a.95.95,0,0,0-1.89,0v1.2h-1.2a.95.95,0,1,0,0,1.89Z"/></svg>