<svg id="Layer_1" data-name="Layer 1" xmlns="http://www.w3.org/2000/svg" viewBox="0 0 20.09 18.2"><defs><style>.cls-1{fill:#c7e0e7;stroke:#c8e0e7;stroke-width:0.25px;}.cls-1,.cls-2{stroke-miterlimit:10;}.cls-2{fill:none;stroke:#c7e0e7;stroke-width:0.5px;}</style></defs><title>twitter</title><path class="cls-1" d="M17.31,4.6a.33.33,0,0,0-.3-.07l-.5.17a3.4,3.4,0,0,0,.62-1.07.26.26,0,0,0,0-.3.26.26,0,0,0-.3,0A18.2,18.2,0,0,1,15,4s0,0,0,0a5.17,5.17,0,0,0-2.06-.72A3.28,3.28,0,0,0,9.71,6.59v.1A9.06,9.06,0,0,1,4.17,3.83l-.25-.25-.15.3A3.36,3.36,0,0,0,4.49,8a2,2,0,0,1-1-.45.3.3,0,0,0-.35,0A.31.31,0,0,0,3,7.81a4.88,4.88,0,0,0,2.16,2.68A2,2,0,0,1,4,10.19a.35.35,0,0,0-.35,0,.27.27,0,0,0-.1.32,3,3,0,0,0,2.71,2.11,6.1,6.1,0,0,1-3.13.8.35.35,0,0,0-.32.22.35.35,0,0,0,.1.37c.89.72,2.88,1.14,5.34,1.14,4.37,0,8-3.9,8-8.7V6.42A2.46,2.46,0,0,0,17.38,4.9.33.33,0,0,0,17.31,4.6ZM15.82,6l-.15,0v.42c0,4.52-3.35,8.2-7.45,8.2a11.07,11.07,0,0,1-4.6-.77A6,6,0,0,0,7.1,12.65l.62-.45H7c-1.42,0-2.29-.4-2.78-1.34A3.91,3.91,0,0,0,5.63,11a4.79,4.79,0,0,1,.6,0l.07-.5A4.49,4.49,0,0,1,3.69,8.21a3.75,3.75,0,0,0,1.54.27H6L5.38,8A3.07,3.07,0,0,1,4.07,4.45,9.81,9.81,0,0,0,9.91,7.24l.3,0v-.7a2.79,2.79,0,0,1,2.68-2.83,4.57,4.57,0,0,1,1.79.65.57.57,0,0,0,.45,0c.37-.12.82-.3,1.32-.5a4,4,0,0,1-.92,1,.3.3,0,0,0-.07.35.25.25,0,0,0,.32.12l1-.32A1.76,1.76,0,0,1,15.82,6Z"/><rect class="cls-2" x="0.91" y="0.63" width="18.29" height="16.95" rx="2.3" ry="2.3"/></svg>